# xmcd
#
# Track frame offsets: 
#        150
#        15185
#        32771
#        50537
#        64998
#        78743
#        93285
#        113746
#        127693
#        143792
#        156988
#        171194
#        190277
#        206534
#        223104
#        238176
#        258191
#        278043
#        294325
#        306618
#
# Disc length: 4353 seconds
#
# Revision: 0
# Processed by: cddbd v1.5.2PL0 Copyright (c) Steve Scherf et al.
# Submitted via: ExactAudioCopy v0.99pb5
#
DISCID=2110ff14
DTITLE=Various Artist - Ystäväsi aina
DYEAR=2005
DGENRE=Acid Punk
TTITLE0=Etsin kunnes löydän sun
TTITLE1=Päästä sydämeesi minut
TTITLE2=Tule lähemmäksi
TTITLE3=Mua kohtele näin
TTITLE4=Aamu
TTITLE5=Jos et olisi olemassa
TTITLE6=Olet maailmain
TTITLE7=Kuutamolla kahden
TTITLE8=Kuin joutsenlaulu
TTITLE9=Rakkaus voittaa
TTITLE10=Kaunein aamuisin
TTITLE11=Kun paljon antaa
TTITLE12=Kuusi neilikkaa
TTITLE13=Vanhaa viiniä
TTITLE14=Ikävä
TTITLE15=Miehen sait muuttumaan
TTITLE16=Yö ja päivä
TTITLE17=Vie minut sun uniin
TTITLE18=Puhu hiljaa rakkaudesta
TTITLE19=Ystäväsi aina
EXTD=
EXTT0=
EXTT1=
EXTT2=
EXTT3=
EXTT4=
EXTT5=
EXTT6=
EXTT7=
EXTT8=
EXTT9=
EXTT10=
EXTT11=
EXTT12=
EXTT13=
EXTT14=
EXTT15=
EXTT16=
EXTT17=
EXTT18=
EXTT19=
PLAYORDER=
